<svg xmlns="http://www.w3.org/2000/svg" viewBox="0 0 337 159" width="337" height="159">
	<defs>
		<clipPath clipPathUnits="userSpaceOnUse" id="cp1">
			<path d="M-41 -40L390 -40L390 219L-41 219Z" />
		</clipPath>
	</defs>
	<style>
		tspan { white-space:pre }
		.shp0 { fill: #00588b } 
		.shp1 { fill: #ffae47 } 
	</style>
	<g id="Page 1" clip-path="url(#cp1)">
		<path id="Path 1" class="shp0" d="M42.62,141.87l-3.76,0.01l-0.92,-6.09c-3.39,4.85 -8.57,7.03 -14.94,7.05c-12.1,0.05 -18.78,-8.53 -18.84,-24.39c-0.06,-13.71 7.43,-23.97 18.28,-24.01c6.28,-0.03 10.05,2.11 14.64,6.93l-0.1,-24.2l5.38,-0.02zM37.09,107.02c-1.81,-3.13 -7.92,-8.3 -13.21,-8.28c-9.68,0.04 -14.39,8.58 -14.34,20.68c0.05,10.76 4.39,19.17 13.71,19.13c6.63,-0.03 10.47,-3.72 13.95,-8.58zM79.2,141.71l-0.74,-5.64c-5.54,4.42 -9.74,6.59 -16.91,6.62c-7.26,0.03 -12.84,-4.43 -12.87,-12.14c-0.06,-12.73 10.33,-15.1 29.77,-19.49l-0.01,-3.23c-0.02,-6.19 -2.73,-9.31 -10.71,-9.27c-5.56,0.02 -10.12,3.09 -13.5,8.49l-3.59,-2.14c4,-7.55 9.73,-10.62 17.25,-10.65c10.58,-0.04 15.62,4.24 15.66,14.55l0.11,24.38c0.01,2.33 0.2,5.38 0.75,8.51zM78.19,115.36c-21.31,4.75 -24.16,9.16 -24.14,15.07c0.02,5.11 3.53,7.97 8.37,7.94c5.02,-0.02 11.19,-3.01 15.84,-7.78zM94.42,95.03l-0.07,-15.24l5.38,-0.03l0.07,15.24l10.22,-0.04l0.02,4.3l-10.22,0.04l0.15,34.15c0.01,3.14 1.45,4.75 4.77,4.73c1.79,-0.01 3.76,-0.47 5.46,-1.01l0.02,4.48c-1.79,0.28 -3.67,0.82 -5.46,0.83c-7.62,0.04 -10.14,-2.46 -10.16,-8.11l-0.15,-35.05l-6.99,0.03l-0.02,-4.3zM139.98,141.44l-0.74,-5.64c-5.54,4.42 -9.74,6.59 -16.91,6.62c-7.26,0.03 -12.84,-4.43 -12.87,-12.14c-0.06,-12.73 10.33,-15.1 29.77,-19.49l-0.01,-3.23c-0.03,-6.19 -2.73,-9.31 -10.71,-9.28c-5.56,0.02 -10.12,3.09 -13.5,8.49l-3.6,-2.14c4,-7.55 9.73,-10.62 17.26,-10.65c10.58,-0.04 15.62,4.24 15.66,14.55l0.11,24.38c0.01,2.33 0.2,5.38 0.75,8.51zM138.97,115.1c-21.31,4.75 -24.16,9.16 -24.14,15.07c0.02,5.11 3.53,7.96 8.37,7.94c5.02,-0.02 11.19,-3.01 15.83,-7.78zM174.26,107.41c-1.54,-4.48 -4.42,-6.61 -7.83,-6.6c-2.6,0.01 -4.56,1.9 -4.55,4.41c0.03,7.53 22.09,7.61 22.15,22.14c0.04,9.68 -6.75,14.82 -16.16,14.86c-6.81,0.03 -12.91,-1.65 -18.44,-13.82l10.12,-2.82c1,4.57 3.8,7.51 8.28,7.49c3.41,-0.01 5.46,-1.64 5.45,-4.33c-0.04,-9.32 -22.08,-6.99 -22.15,-23.39c-0.04,-9.24 7.38,-13.66 15.36,-13.69c8.43,-0.04 14.27,4.78 17.09,12.12zM198.41,92.43l0.03,5.92l0.18,0c1.96,-3.06 6.96,-6.85 11.98,-6.86c8.79,-0.04 12.4,6.76 12.45,19.31l0.05,11.83c0.05,12.55 -3.5,19.38 -12.29,19.42c-3.05,0.01 -5.92,-1.41 -11.32,-5.33l0.09,21.69l-11.3,0.05l-0.29,-65.98zM199.47,130.16c2.25,2.41 4.32,3.48 6.83,3.47c3.05,-0.01 5.55,-2 5.51,-11.68l-0.05,-10.4c-0.04,-9.68 -2.56,-11.64 -5.61,-11.63c-2.51,0.01 -4.57,1.1 -6.8,3.53zM227.34,106.56c0.76,-10.85 8.99,-15.19 18.04,-15.23c12.01,-0.05 16.61,6.02 16.65,14.72l0.13,30.92c0.01,1.35 0.28,2.69 0.65,3.94l-11.29,0.05c-0.28,-1.25 -0.46,-2.78 -0.83,-4.75c-3.3,3.33 -7.77,5.68 -13.42,5.7c-6.81,0.03 -11.22,-3.72 -11.26,-11.61c-0.05,-11.29 10.69,-16.18 24.75,-20.45l-0.01,-3.59c-0.02,-4.21 -2.63,-5.81 -5.85,-5.8c-3.41,0.01 -6.26,2.54 -6.25,6.03zM250.79,117.12c-6.71,2.36 -13.51,6.15 -13.49,11.26c0.01,3.23 1.99,5.1 5.04,5.09c3.41,-0.01 5.82,-1.82 8.5,-4.52zM268.91,140.89l-0.21,-48.76l11.02,-0.05l0.03,6.45l0.18,0c2.58,-4.85 5.97,-7.38 11.62,-7.4l0.05,12.19c-1.89,-0.53 -4.04,-1.24 -6.01,-1.23c-3.67,0.02 -5.55,2.8 -5.54,5.4l0.14,33.35zM294.82,140.78l-0.28,-64.72l11.3,-0.05l0.15,34.87l0.18,0l11.93,-18.96l12.64,-0.05l-11.13,16.54l12.33,32.22l-11.92,0.05l-8.35,-22.82l-5.61,8l0.06,14.88z" />
		<path id="Path 2" class="shp1" d="M160.71,41.8l68.53,40.34l-66.72,-43.27c-0.02,-0.01 -0.04,-0.03 -0.06,-0.04c-0.82,-0.48 -1.88,-0.21 -2.36,0.61c-0.48,0.82 -0.21,1.87 0.61,2.36zM205,46.81l31.77,34.9l-28.24,-37.82c-0.04,-0.06 -0.09,-0.12 -0.14,-0.17c-0.85,-0.94 -2.31,-1 -3.24,-0.15c-0.94,0.85 -1.01,2.3 -0.15,3.24zM208.96,18.85c-0.64,-1.09 -2.05,-1.46 -3.14,-0.81c-1.09,0.64 -1.46,2.05 -0.81,3.14l27.27,46.37l-23.22,-48.52c-0.03,-0.06 -0.06,-0.12 -0.09,-0.17zM183.03,73.44c-0.93,-0.21 -1.85,0.37 -2.06,1.3c-0.21,0.93 0.37,1.85 1.3,2.06l41.38,9.4l-40.48,-12.73c-0.04,-0.01 -0.09,-0.03 -0.13,-0.04zM232.66,23.48c-0.33,-1.22 -1.58,-1.95 -2.81,-1.62c-1.22,0.33 -1.95,1.59 -1.62,2.81l12.97,48.56l-8.49,-49.54c-0.01,-0.07 -0.03,-0.14 -0.04,-0.2zM299.07,9.46c0.64,-1.1 0.26,-2.5 -0.84,-3.13c-1.09,-0.63 -2.5,-0.26 -3.13,0.84l-39.85,68.83l43.75,-66.42c0.02,-0.04 0.05,-0.08 0.07,-0.11zM293.67,55.13c0.94,-0.85 1.01,-2.3 0.15,-3.24c-0.85,-0.94 -2.3,-1 -3.24,-0.15l-34.9,31.78l37.82,-28.24c0.06,-0.04 0.11,-0.09 0.17,-0.14zM316.21,51.75l-46.37,27.27l48.52,-23.22c0.06,-0.03 0.12,-0.06 0.17,-0.09c1.09,-0.64 1.46,-2.05 0.81,-3.14c-0.64,-1.09 -2.05,-1.46 -3.14,-0.81zM263.83,29.89c0.01,-0.04 0.03,-0.08 0.03,-0.12c0.2,-0.88 -0.35,-1.76 -1.23,-1.97c-0.88,-0.2 -1.76,0.35 -1.97,1.23l-9.48,41.36zM244.44,35.5c-1.26,0.1 -2.21,1.21 -2.1,2.48l2.71,33.15l1.87,-33.21c0,-0.1 0,-0.21 0,-0.32c-0.1,-1.26 -1.21,-2.21 -2.48,-2.1zM291.58,80.33l-28.52,7.62l28.52,-4.89zM316.38,76.6c-0.33,-1.22 -1.58,-1.95 -2.81,-1.62l-5.14,1.37v4.15l6.12,-1.05c0.06,-0.01 0.14,-0.03 0.2,-0.04c1.22,-0.33 1.95,-1.58 1.62,-2.81z" />
	</g>
</svg>