<svg xmlns="http://www.w3.org/2000/svg" viewBox="0 0 539 117" width="539" height="117">
	<defs>
		<clipPath clipPathUnits="userSpaceOnUse" id="cp1">
			<path d="M-149,801h816v-1056h-816z" />
		</clipPath>
	</defs>
	<style>
		tspan { white-space:pre }
		.shp0 { fill: #ffffff } 
		.shp1 { fill: #104076 } 
		.shp2 { fill: #708daf } 
	</style>
	<g id="g10">
		<g id="g12">
			<path id="path14" class="shp0" d="M91.28,0.79l-81.22,35.72l28.87,73.61l79.49,-36.73z" />
		</g>
		<g id="g16">
			<g id="Clip-Path: g18" clip-path="url(#cp1)">
				<g id="g18">
					<g id="g24">
						<path id="path26" class="shp1" d="M136.3,69.21l3.52,-28.63h14.77c2.74,0 4.8,0.23 6.19,0.7c1.39,0.47 2.45,1.34 3.18,2.61c0.73,1.27 0.98,2.81 0.76,4.64c-0.19,1.59 -0.7,2.96 -1.52,4.11c-0.82,1.15 -1.87,2.08 -3.15,2.8c-0.81,0.46 -1.9,0.83 -3.25,1.13c1.01,0.35 1.73,0.71 2.17,1.06c0.3,0.23 0.71,0.74 1.23,1.51c0.52,0.77 0.86,1.37 1.02,1.79l3.3,8.28h-10l-3.69,-8.75c-0.46,-1.13 -0.91,-1.87 -1.34,-2.21c-0.59,-0.44 -1.29,-0.67 -2.1,-0.67h-0.79l-1.43,11.63zM147.27,52.17h3.76c0.41,0 1.21,-0.13 2.41,-0.39c0.6,-0.12 1.12,-0.42 1.56,-0.89c0.43,-0.48 0.69,-1.03 0.76,-1.65c0.11,-0.92 -0.1,-1.63 -0.63,-2.12c-0.53,-0.49 -1.61,-0.74 -3.23,-0.74h-3.91z" />
					</g>
					<g id="g28">
						<path id="path30" class="shp1" d="M170.39,69.21h8.88l3.51,-28.63h-8.87z" />
					</g>
					<g id="g32">
						<path id="path34" class="shp1" d="M199.07,40.58h13.16c2.59,0 4.65,0.35 6.16,1.05c1.51,0.7 2.71,1.71 3.59,3.03c0.88,1.31 1.45,2.84 1.71,4.59c0.25,1.75 0.26,3.59 0.02,5.54c-0.38,3.06 -1.02,5.43 -1.92,7.12c-0.9,1.69 -2.05,3.1 -3.42,4.24c-1.38,1.14 -2.8,1.9 -4.27,2.27c-2.01,0.52 -3.8,0.78 -5.37,0.78h-13.16zM207.1,47.08l-1.92,15.63h2.18c1.86,0 3.21,-0.21 4.05,-0.61c0.84,-0.41 1.54,-1.13 2.11,-2.15c0.57,-1.02 1,-2.67 1.28,-4.96c0.37,-3.03 0.13,-5.1 -0.73,-6.22c-0.86,-1.12 -2.44,-1.68 -4.75,-1.68z" />
					</g>
					<g id="g36">
						<path id="path38" class="shp1" d="M250.07,60.79h-15.92c-0.01,1.28 0.21,2.23 0.68,2.86c0.65,0.9 1.6,1.35 2.83,1.35c0.78,0 1.54,-0.2 2.29,-0.59c0.46,-0.25 0.97,-0.69 1.54,-1.32l7.74,0.75c-1.45,2.08 -3.08,3.57 -4.88,4.48c-1.8,0.9 -4.28,1.36 -7.44,1.36c-2.74,0 -4.86,-0.39 -6.33,-1.16c-1.48,-0.77 -2.63,-2.01 -3.46,-3.69c-0.83,-1.68 -1.1,-3.67 -0.82,-5.94c0.4,-3.24 1.76,-5.86 4.08,-7.87c2.32,-2 5.31,-3.01 8.96,-3.01c2.97,0 5.25,0.45 6.86,1.35c1.61,0.9 2.75,2.19 3.44,3.9c0.69,1.7 0.87,3.92 0.53,6.65zM242.46,57c0.03,-1.53 -0.25,-2.63 -0.83,-3.3c-0.59,-0.66 -1.43,-0.99 -2.52,-0.99c-1.26,0 -2.33,0.5 -3.21,1.5c-0.56,0.62 -0.98,1.55 -1.26,2.79z" />
					</g>
					<g id="g40">
						<path id="path42" class="shp1" d="M251.79,77.08l3.51,-28.62h7.45l-0.38,3.07c1.18,-1.29 2.23,-2.16 3.14,-2.61c1.23,-0.61 2.55,-0.92 3.95,-0.92c2.76,0 4.77,1.06 6.02,3.18c1.25,2.12 1.69,4.74 1.3,7.86c-0.42,3.45 -1.57,6.08 -3.44,7.9c-1.87,1.81 -4.06,2.72 -6.58,2.72c-1.22,0 -2.31,-0.21 -3.26,-0.63c-0.95,-0.42 -1.78,-1.04 -2.47,-1.86l-1.22,9.91zM262.01,58.88c-0.2,1.64 -0.01,2.85 0.58,3.64c0.59,0.79 1.4,1.19 2.45,1.19c0.91,0 1.73,-0.38 2.44,-1.14c0.71,-0.76 1.18,-2.05 1.4,-3.87c0.21,-1.67 0.03,-2.91 -0.51,-3.69c-0.55,-0.78 -1.29,-1.18 -2.22,-1.18c-1,0 -1.89,0.4 -2.66,1.19c-0.77,0.79 -1.26,2.08 -1.48,3.86z" />
					</g>
					<g id="g44">
						<path id="path46" class="shp1" d="M288.33,55.17l-7.49,-0.79c0.45,-1.33 0.99,-2.37 1.62,-3.13c0.63,-0.76 1.49,-1.42 2.58,-1.98c0.78,-0.4 1.82,-0.71 3.12,-0.93c1.3,-0.22 2.69,-0.33 4.18,-0.33c2.38,0 4.28,0.13 5.69,0.4c1.41,0.27 2.55,0.82 3.41,1.67c0.6,0.59 1.04,1.41 1.29,2.49c0.26,1.07 0.33,2.1 0.21,3.08l-1.12,9.16c-0.12,0.98 -0.15,1.74 -0.1,2.29c0.06,0.55 0.24,1.26 0.55,2.12h-7.48c-0.23,-0.54 -0.38,-0.94 -0.44,-1.22c-0.06,-0.28 -0.09,-0.72 -0.11,-1.32c-1.16,1 -2.28,1.72 -3.36,2.15c-1.47,0.57 -3.14,0.86 -5,0.86c-2.47,0 -4.27,-0.57 -5.41,-1.72c-1.14,-1.15 -1.6,-2.56 -1.4,-4.24c0.19,-1.58 0.81,-2.87 1.86,-3.89c1.05,-1.01 2.84,-1.77 5.38,-2.27c3.05,-0.6 5.03,-1.02 5.94,-1.26c0.91,-0.24 1.89,-0.56 2.92,-0.95c0.12,-0.97 0,-1.65 -0.35,-2.04c-0.35,-0.39 -1.04,-0.58 -2.05,-0.58c-1.3,0 -2.3,0.21 -3,0.63c-0.55,0.33 -1.03,0.93 -1.45,1.83zM294.7,59.33c-1.14,0.39 -2.32,0.74 -3.53,1.04c-1.66,0.43 -2.73,0.85 -3.21,1.27c-0.49,0.43 -0.77,0.92 -0.84,1.47c-0.08,0.63 0.07,1.14 0.46,1.54c0.39,0.4 1,0.6 1.85,0.6c0.88,0 1.73,-0.22 2.54,-0.65c0.81,-0.43 1.42,-0.96 1.81,-1.58c0.39,-0.62 0.65,-1.43 0.77,-2.42z" />
					</g>
					<g id="g48">
						<path id="path50" class="shp1" d="M306.16,69.21h8l0.85,-6.96c0.41,-3.32 1.1,-5.59 2.06,-6.8c0.68,-0.86 1.54,-1.29 2.58,-1.29c0.55,0 1.26,0.2 2.15,0.59l3.16,-5.67c-1.3,-0.72 -2.54,-1.08 -3.71,-1.08c-1.12,0 -2.09,0.28 -2.92,0.83c-0.83,0.55 -1.69,1.56 -2.59,3.03l0.42,-3.4h-7.45z" />
					</g>
					<g id="g52">
						<path id="path54" class="shp1" d="M330.46,44.66l-0.47,3.8h-2.92l-0.72,5.83h2.92l-0.89,7.29c-0.28,2.31 -0.27,3.99 0.06,5.02c0.32,1.03 0.92,1.8 1.79,2.31c0.88,0.51 2.3,0.76 4.28,0.76c1.7,0 3.56,-0.22 5.58,-0.65l0.09,-5.48c-1.1,0.34 -1.94,0.51 -2.52,0.51c-0.65,0 -1.08,-0.22 -1.29,-0.66c-0.13,-0.29 -0.15,-0.87 -0.04,-1.75l0.9,-7.34h4.38l0.72,-5.83h-4.38l0.97,-7.87z" />
					</g>
					<g id="g56">
						<path id="path58" class="shp1" d="M343.62,69.21h7.96l1.3,-10.57c0.19,-1.57 0.63,-2.7 1.3,-3.39c0.67,-0.69 1.47,-1.03 2.39,-1.03c0.56,0 1.04,0.16 1.42,0.48c0.38,0.32 0.63,0.74 0.73,1.26c0.07,0.33 0.04,0.94 -0.07,1.85l-1.4,11.41h7.96l1.32,-10.72c0.18,-1.5 0.6,-2.59 1.26,-3.27c0.66,-0.68 1.45,-1.02 2.39,-1.02c0.79,0 1.41,0.36 1.86,1.08c0.31,0.46 0.41,1.15 0.29,2.09l-1.45,11.83h7.96l1.6,-13.03c0.35,-2.81 -0.03,-4.88 -1.11,-6.2c-1.09,-1.32 -2.74,-1.98 -4.97,-1.98c-1.51,0 -2.81,0.25 -3.9,0.73c-1.09,0.49 -2.34,1.41 -3.76,2.77c-0.47,-1.16 -1.15,-2.04 -2.05,-2.63c-0.89,-0.59 -2.17,-0.88 -3.83,-0.88c-1.54,0 -2.89,0.27 -4.04,0.8c-1.16,0.54 -2.35,1.44 -3.57,2.7l0.37,-3.05h-7.41z" />
					</g>
					<g id="g60">
						<path id="path62" class="shp1" d="M407.61,60.79h-15.92c-0.01,1.28 0.21,2.23 0.68,2.86c0.65,0.9 1.6,1.35 2.83,1.35c0.78,0 1.54,-0.2 2.29,-0.59c0.46,-0.25 0.97,-0.69 1.54,-1.32l7.74,0.75c-1.45,2.08 -3.08,3.57 -4.88,4.48c-1.8,0.9 -4.28,1.36 -7.44,1.36c-2.74,0 -4.86,-0.39 -6.33,-1.16c-1.48,-0.77 -2.63,-2.01 -3.46,-3.69c-0.83,-1.68 -1.1,-3.67 -0.82,-5.94c0.4,-3.24 1.76,-5.86 4.08,-7.87c2.32,-2 5.31,-3.01 8.97,-3.01c2.97,0 5.25,0.45 6.86,1.35c1.61,0.9 2.76,2.19 3.44,3.9c0.69,1.7 0.87,3.92 0.53,6.65zM399.99,57c0.03,-1.53 -0.25,-2.63 -0.83,-3.3c-0.59,-0.66 -1.43,-0.99 -2.52,-0.99c-1.26,0 -2.33,0.5 -3.2,1.5c-0.56,0.62 -0.98,1.55 -1.26,2.79z" />
					</g>
					<g id="g64">
						<path id="path66" class="shp1" d="M410.26,69.21h7.96l1.22,-9.95c0.23,-1.89 0.69,-3.19 1.37,-3.92c0.69,-0.73 1.51,-1.09 2.47,-1.09c0.87,0 1.51,0.27 1.92,0.81c0.41,0.54 0.54,1.46 0.38,2.76l-1.4,11.39h8l1.62,-13.18c0.34,-2.73 -0.04,-4.76 -1.12,-6.06c-1.08,-1.31 -2.72,-1.96 -4.92,-1.96c-1.63,0 -3.04,0.3 -4.24,0.89c-1.2,0.59 -2.44,1.58 -3.72,2.96l0.42,-3.4h-7.41z" />
					</g>
					<g id="g68">
						<path id="path70" class="shp1" d="M441.58,44.66l-0.47,3.8h-2.92l-0.72,5.83h2.92l-0.89,7.29c-0.28,2.31 -0.27,3.99 0.06,5.02c0.32,1.03 0.92,1.8 1.79,2.31c0.88,0.51 2.3,0.76 4.28,0.76c1.71,0 3.56,-0.22 5.58,-0.65l0.09,-5.48c-1.1,0.34 -1.94,0.51 -2.52,0.51c-0.65,0 -1.08,-0.22 -1.29,-0.66c-0.13,-0.29 -0.15,-0.87 -0.04,-1.75l0.9,-7.34h4.38l0.72,-5.83h-4.38l0.97,-7.87z" />
					</g>
					<g id="g72">
						<path id="path74" class="shp1" d="M468.3,58.89c0.39,-3.16 1.78,-5.77 4.16,-7.82c2.39,-2.05 5.4,-3.07 9.03,-3.07c4.15,0 7.14,1.2 8.97,3.61c1.47,1.94 2.03,4.33 1.68,7.16c-0.39,3.19 -1.77,5.8 -4.14,7.84c-2.37,2.04 -5.42,3.05 -9.16,3.05c-3.33,0 -5.93,-0.85 -7.78,-2.54c-2.27,-2.09 -3.2,-4.84 -2.78,-8.24zM476.26,58.86c-0.23,1.85 -0.02,3.21 0.62,4.1c0.64,0.89 1.53,1.33 2.66,1.33c1.15,0 2.14,-0.43 2.99,-1.31c0.84,-0.87 1.38,-2.27 1.62,-4.2c0.22,-1.79 0.01,-3.13 -0.62,-4.01c-0.64,-0.88 -1.5,-1.32 -2.59,-1.32c-1.16,0 -2.17,0.45 -3.04,1.34c-0.87,0.89 -1.41,2.25 -1.63,4.07z" />
					</g>
					<g id="g76">
						<path id="path78" class="shp1" d="M506.41,46.64c0.2,-0.52 0.46,-0.91 0.81,-1.15c0.34,-0.24 0.87,-0.36 1.59,-0.36c0.59,0 1.35,0.08 2.28,0.23l1.47,-4.79c-2.62,-0.33 -4.62,-0.49 -6.01,-0.49c-1.75,0 -3.09,0.2 -4.05,0.6c-0.95,0.4 -1.72,0.92 -2.3,1.56c-0.58,0.65 -1.02,1.47 -1.33,2.49c-0.31,1.02 -0.51,1.95 -0.62,2.79l-0.12,0.94h-2.96l-0.72,5.83h2.96l-1.83,14.92h7.96l1.83,-14.92h3.79l0.72,-5.83h-3.79c0.11,-0.93 0.22,-1.54 0.32,-1.82z" />
					</g>
					<g id="g80">
						<path id="path82" class="shp1" d="M129.35,107.88h22.67l0.86,-7.04h-13.83l2.65,-21.58h-8.83z" />
					</g>
					<g id="g84">
						<path id="path86" class="shp1" d="M164.46,93.83l-7.49,-0.79c0.45,-1.33 0.99,-2.37 1.62,-3.13c0.63,-0.76 1.49,-1.42 2.57,-1.98c0.78,-0.4 1.82,-0.71 3.12,-0.93c1.3,-0.22 2.69,-0.33 4.18,-0.33c2.38,0 4.28,0.13 5.69,0.4c1.41,0.27 2.55,0.82 3.41,1.67c0.6,0.59 1.04,1.41 1.29,2.49c0.26,1.07 0.33,2.1 0.21,3.08l-1.12,9.16c-0.12,0.98 -0.15,1.74 -0.1,2.29c0.05,0.55 0.24,1.26 0.55,2.12h-7.48c-0.23,-0.54 -0.38,-0.94 -0.44,-1.22c-0.06,-0.28 -0.09,-0.72 -0.11,-1.32c-1.16,1 -2.28,1.72 -3.36,2.15c-1.47,0.57 -3.14,0.86 -5,0.86c-2.47,0 -4.27,-0.57 -5.41,-1.72c-1.14,-1.15 -1.61,-2.56 -1.4,-4.24c0.19,-1.58 0.81,-2.87 1.86,-3.89c1.05,-1.01 2.84,-1.77 5.38,-2.27c3.05,-0.6 5.03,-1.02 5.94,-1.26c0.91,-0.24 1.89,-0.56 2.92,-0.95c0.12,-0.97 0,-1.65 -0.35,-2.04c-0.35,-0.39 -1.04,-0.58 -2.05,-0.58c-1.3,0 -2.3,0.21 -3,0.63c-0.55,0.33 -1.03,0.93 -1.45,1.83zM170.82,98c-1.14,0.39 -2.32,0.74 -3.53,1.04c-1.66,0.43 -2.73,0.85 -3.21,1.27c-0.49,0.43 -0.77,0.92 -0.84,1.47c-0.08,0.63 0.08,1.14 0.46,1.54c0.39,0.4 1,0.6 1.85,0.6c0.88,0 1.73,-0.22 2.54,-0.65c0.81,-0.43 1.42,-0.96 1.81,-1.58c0.39,-0.62 0.65,-1.43 0.77,-2.42z" />
					</g>
					<g id="g88">
						<path id="path90" class="shp1" d="M186.15,79.25h8.04l-1.22,9.92c0.89,-0.84 1.87,-1.46 2.93,-1.88c1.06,-0.42 2.19,-0.63 3.41,-0.63c2.52,0 4.49,0.91 5.91,2.72c1.42,1.81 1.93,4.42 1.51,7.81c-0.28,2.27 -0.9,4.26 -1.86,5.99c-0.96,1.72 -2.17,3.01 -3.6,3.86c-1.43,0.85 -2.96,1.28 -4.59,1.28c-1.39,0 -2.62,-0.3 -3.7,-0.9c-0.81,-0.47 -1.65,-1.35 -2.52,-2.64l-0.38,3.08h-7.45zM191.9,97.45c-0.22,1.78 -0.04,3.06 0.52,3.86c0.57,0.8 1.36,1.19 2.38,1.19c0.94,0 1.78,-0.39 2.51,-1.18c0.73,-0.78 1.22,-2.1 1.44,-3.96c0.2,-1.63 0.03,-2.83 -0.5,-3.6c-0.53,-0.76 -1.24,-1.15 -2.13,-1.15c-1.07,0 -1.99,0.4 -2.77,1.19c-0.77,0.8 -1.26,2.01 -1.46,3.63z" />
					</g>
					<g id="g92">
						<path id="path94" class="shp1" d="M209.54,97.56c0.39,-3.16 1.78,-5.77 4.16,-7.82c2.39,-2.05 5.4,-3.07 9.03,-3.07c4.15,0 7.15,1.2 8.97,3.61c1.47,1.94 2.03,4.33 1.68,7.16c-0.39,3.19 -1.77,5.8 -4.14,7.84c-2.37,2.04 -5.42,3.05 -9.16,3.05c-3.33,0 -5.93,-0.85 -7.78,-2.54c-2.27,-2.09 -3.2,-4.84 -2.78,-8.24zM217.5,97.53c-0.23,1.85 -0.02,3.21 0.62,4.1c0.64,0.89 1.53,1.33 2.66,1.33c1.15,0 2.14,-0.43 2.99,-1.31c0.84,-0.87 1.38,-2.27 1.62,-4.2c0.22,-1.79 0.01,-3.13 -0.62,-4.01c-0.63,-0.88 -1.5,-1.32 -2.59,-1.32c-1.16,0 -2.17,0.45 -3.04,1.34c-0.87,0.89 -1.41,2.25 -1.63,4.07z" />
					</g>
					<g id="g96">
						<path id="path98" class="shp1" d="M236.04,107.88h8l0.85,-6.96c0.41,-3.32 1.1,-5.59 2.07,-6.8c0.68,-0.86 1.54,-1.29 2.58,-1.29c0.55,0 1.26,0.2 2.15,0.59l3.15,-5.67c-1.3,-0.72 -2.54,-1.08 -3.71,-1.08c-1.12,0 -2.09,0.28 -2.92,0.83c-0.83,0.55 -1.69,1.56 -2.59,3.03l0.42,-3.4h-7.45z" />
					</g>
					<g id="g100">
						<path id="path102" class="shp1" d="M275.98,93.83l-7.49,-0.79c0.45,-1.33 0.99,-2.37 1.63,-3.13c0.63,-0.76 1.49,-1.42 2.57,-1.98c0.78,-0.4 1.82,-0.71 3.12,-0.93c1.3,-0.22 2.69,-0.33 4.18,-0.33c2.38,0 4.28,0.13 5.69,0.4c1.41,0.27 2.55,0.82 3.41,1.67c0.6,0.59 1.04,1.41 1.29,2.49c0.26,1.07 0.33,2.1 0.21,3.08l-1.12,9.16c-0.12,0.98 -0.15,1.74 -0.1,2.29c0.06,0.55 0.24,1.26 0.55,2.12h-7.48c-0.24,-0.54 -0.38,-0.94 -0.44,-1.22c-0.06,-0.28 -0.09,-0.72 -0.11,-1.32c-1.16,1 -2.28,1.72 -3.36,2.15c-1.47,0.57 -3.14,0.86 -5,0.86c-2.47,0 -4.27,-0.57 -5.41,-1.72c-1.14,-1.15 -1.61,-2.56 -1.4,-4.24c0.19,-1.58 0.81,-2.87 1.86,-3.89c1.05,-1.01 2.84,-1.77 5.39,-2.27c3.05,-0.6 5.03,-1.02 5.94,-1.26c0.91,-0.24 1.89,-0.56 2.92,-0.95c0.12,-0.97 0,-1.65 -0.35,-2.04c-0.35,-0.39 -1.04,-0.58 -2.05,-0.58c-1.3,0 -2.3,0.21 -3,0.63c-0.55,0.33 -1.03,0.93 -1.45,1.83zM282.35,98c-1.14,0.39 -2.32,0.74 -3.53,1.04c-1.66,0.43 -2.73,0.85 -3.21,1.27c-0.49,0.43 -0.77,0.92 -0.84,1.47c-0.08,0.63 0.08,1.14 0.46,1.54c0.39,0.4 1,0.6 1.85,0.6c0.88,0 1.73,-0.22 2.54,-0.65c0.81,-0.43 1.42,-0.96 1.81,-1.58c0.39,-0.62 0.65,-1.43 0.77,-2.42z" />
					</g>
					<g id="g104">
						<path id="path106" class="shp1" d="M293.73,107.88h7.96l1.22,-9.95c0.23,-1.89 0.69,-3.19 1.37,-3.92c0.68,-0.73 1.51,-1.09 2.46,-1.09c0.87,0 1.51,0.27 1.92,0.81c0.41,0.54 0.54,1.46 0.38,2.76l-1.4,11.39h8l1.62,-13.18c0.33,-2.73 -0.04,-4.76 -1.12,-6.06c-1.08,-1.31 -2.72,-1.96 -4.91,-1.96c-1.63,0 -3.04,0.3 -4.24,0.89c-1.2,0.59 -2.44,1.58 -3.72,2.96l0.42,-3.4h-7.41z" />
					</g>
					<g id="g108">
						<path id="path110" class="shp1" d="M345.71,79.25l-3.51,28.62h-7.45l0.38,-3.08c-1.2,1.3 -2.25,2.18 -3.17,2.64c-1.21,0.6 -2.52,0.9 -3.93,0.9c-2.82,0 -4.83,-1.07 -6.06,-3.22c-1.22,-2.15 -1.64,-4.75 -1.27,-7.83c0.42,-3.43 1.57,-6.06 3.43,-7.89c1.87,-1.82 4.06,-2.73 6.59,-2.73c1.23,0 2.33,0.21 3.28,0.63c0.95,0.42 1.77,1.04 2.45,1.88l1.22,-9.92zM335.5,97.45c0.2,-1.62 0.01,-2.83 -0.58,-3.63c-0.59,-0.8 -1.4,-1.19 -2.45,-1.19c-0.92,0 -1.73,0.38 -2.44,1.15c-0.71,0.77 -1.18,2.05 -1.4,3.85c-0.21,1.69 -0.04,2.92 0.5,3.7c0.54,0.78 1.28,1.18 2.23,1.18c1.01,0 1.89,-0.4 2.66,-1.19c0.77,-0.79 1.26,-2.08 1.48,-3.87z" />
					</g>
					<g id="g112">
						<path id="path114" class="shp1" d="M361.57,86.33h9.04l-2.64,21.54h8.83l2.64,-21.54h9.04l0.87,-7.08h-26.92z" />
					</g>
					<g id="g116">
						<path id="path118" class="shp1" d="M387.68,107.88h8l0.85,-6.96c0.41,-3.32 1.1,-5.59 2.06,-6.8c0.68,-0.86 1.54,-1.29 2.58,-1.29c0.55,0 1.26,0.2 2.15,0.59l3.15,-5.67c-1.3,-0.72 -2.54,-1.08 -3.71,-1.08c-1.12,0 -2.09,0.28 -2.92,0.83c-0.83,0.55 -1.69,1.56 -2.59,3.03l0.42,-3.4h-7.45z" />
					</g>
					<g id="g120">
						<path id="path122" class="shp1" d="M414.97,93.83l-7.49,-0.79c0.45,-1.33 0.99,-2.37 1.63,-3.13c0.63,-0.76 1.49,-1.42 2.57,-1.98c0.78,-0.4 1.82,-0.71 3.12,-0.93c1.3,-0.22 2.69,-0.33 4.18,-0.33c2.38,0 4.28,0.13 5.69,0.4c1.41,0.27 2.55,0.82 3.41,1.67c0.6,0.59 1.04,1.41 1.29,2.49c0.26,1.07 0.33,2.1 0.21,3.08l-1.12,9.16c-0.12,0.98 -0.15,1.74 -0.1,2.29c0.06,0.55 0.24,1.26 0.55,2.12h-7.48c-0.24,-0.54 -0.38,-0.94 -0.44,-1.22c-0.06,-0.28 -0.09,-0.72 -0.11,-1.32c-1.16,1 -2.28,1.72 -3.36,2.15c-1.47,0.57 -3.14,0.86 -5,0.86c-2.47,0 -4.27,-0.57 -5.41,-1.72c-1.14,-1.15 -1.61,-2.56 -1.4,-4.24c0.19,-1.58 0.81,-2.87 1.86,-3.89c1.05,-1.01 2.84,-1.77 5.39,-2.27c3.05,-0.6 5.03,-1.02 5.94,-1.26c0.91,-0.24 1.89,-0.56 2.92,-0.95c0.12,-0.97 0,-1.65 -0.35,-2.04c-0.35,-0.39 -1.04,-0.58 -2.05,-0.58c-1.3,0 -2.3,0.21 -3,0.63c-0.55,0.33 -1.03,0.93 -1.45,1.83zM421.33,98c-1.14,0.39 -2.32,0.74 -3.53,1.04c-1.66,0.43 -2.73,0.85 -3.21,1.27c-0.49,0.43 -0.77,0.92 -0.84,1.47c-0.08,0.63 0.08,1.14 0.46,1.54c0.39,0.4 1,0.6 1.85,0.6c0.88,0 1.73,-0.22 2.54,-0.65c0.81,-0.43 1.42,-0.96 1.81,-1.58c0.39,-0.62 0.65,-1.43 0.77,-2.42z" />
					</g>
					<g id="g124">
						<path id="path126" class="shp1" d="M433.01,107.88h7.96l2.55,-20.75h-7.96zM435.85,84.67h7.96l0.67,-5.42h-7.96z" />
					</g>
					<g id="g128">
						<path id="path130" class="shp1" d="M446.03,107.88h7.96l1.22,-9.95c0.23,-1.89 0.69,-3.19 1.37,-3.92c0.68,-0.73 1.51,-1.09 2.46,-1.09c0.87,0 1.51,0.27 1.92,0.81c0.41,0.54 0.54,1.46 0.38,2.76l-1.4,11.39h8l1.62,-13.18c0.33,-2.73 -0.04,-4.76 -1.12,-6.06c-1.08,-1.31 -2.72,-1.96 -4.91,-1.96c-1.63,0 -3.04,0.3 -4.24,0.89c-1.2,0.59 -2.44,1.58 -3.72,2.96l0.42,-3.4h-7.41z" />
					</g>
					<g id="g132">
						<path id="path134" class="shp1" d="M473.01,107.88h7.96l2.55,-20.75h-7.96zM475.85,84.67h7.96l0.67,-5.42h-7.96z" />
					</g>
					<g id="g136">
						<path id="path138" class="shp1" d="M486.03,107.88h7.96l1.22,-9.95c0.23,-1.89 0.69,-3.19 1.37,-3.92c0.68,-0.73 1.51,-1.09 2.46,-1.09c0.87,0 1.51,0.27 1.92,0.81c0.41,0.54 0.54,1.46 0.38,2.76l-1.4,11.39h8l1.62,-13.18c0.33,-2.73 -0.04,-4.76 -1.12,-6.06c-1.08,-1.31 -2.72,-1.96 -4.91,-1.96c-1.63,0 -3.04,0.3 -4.24,0.89c-1.2,0.59 -2.44,1.58 -3.72,2.96l0.42,-3.4h-7.41z" />
					</g>
					<g id="g140">
						<path id="path142" class="shp1" d="M529.66,87.12h7.43l-2.4,19.59l-0.09,0.92c-0.16,1.3 -0.59,2.54 -1.29,3.72c-0.7,1.18 -1.55,2.13 -2.55,2.86c-1.01,0.73 -2.23,1.25 -3.68,1.58c-1.45,0.33 -3.09,0.49 -4.91,0.49c-4.16,0 -6.94,-0.63 -8.34,-1.88c-1.4,-1.25 -1.97,-2.93 -1.71,-5.03c0.03,-0.26 0.09,-0.61 0.17,-1.05l7.6,0.87c0.11,0.71 0.34,1.21 0.71,1.48c0.53,0.4 1.24,0.6 2.12,0.6c1.14,0 2.03,-0.3 2.67,-0.91c0.64,-0.61 1.05,-1.67 1.24,-3.19l0.38,-3.13c-0.89,0.92 -1.76,1.59 -2.59,2.01c-1.3,0.65 -2.66,0.97 -4.08,0.97c-2.77,0 -4.86,-1.21 -6.27,-3.63c-1,-1.72 -1.33,-3.99 -0.98,-6.82c0.4,-3.23 1.48,-5.69 3.25,-7.39c1.77,-1.69 3.91,-2.54 6.44,-2.54c1.61,0 2.91,0.27 3.89,0.82c0.98,0.54 1.85,1.45 2.61,2.71zM520.94,97.2c-0.18,1.5 0,2.61 0.55,3.34c0.55,0.73 1.34,1.09 2.39,1.09c0.99,0 1.87,-0.37 2.63,-1.13c0.76,-0.75 1.24,-1.88 1.42,-3.4c0.19,-1.52 -0.02,-2.67 -0.63,-3.48c-0.61,-0.8 -1.42,-1.21 -2.43,-1.21c-1.01,0 -1.87,0.37 -2.57,1.11c-0.7,0.74 -1.15,1.96 -1.36,3.67z" />
					</g>
					<g id="g144">
						<path id="path146" class="shp1" d="M47.53,0.78l-33.31,0.2l-13.44,109l73.35,0.26l3.54,-29.81l-40.11,-0.33z" />
					</g>
					<g id="g148">
						<path id="path150" class="shp2" d="M44.96,21.21l-34.85,15.31l28.83,73.63l37.27,-17.27l1.47,-12.44l-40.01,-0.32z" />
					</g>
					<g id="g152">
						<path id="path154" class="shp1" d="M150.33,0.75l-95.66,0.01l-3.72,30.11l39.72,0.05l-9.77,79.31h33l9.82,-79.31l22.98,-0.05z" />
					</g>
					<g id="g156">
						<path id="path158" class="shp2" d="M52.54,17.88l-1.61,13.05l39.74,0l-7.22,58.62l34.99,-16.16l-27.16,-72.59z" />
					</g>
				</g>
			</g>
		</g>
	</g>
</svg>