<?xml version="1.0" encoding="UTF-8" standalone="no"?>
<svg
   xmlns:dc="http://purl.org/dc/elements/1.1/"
   xmlns:cc="http://creativecommons.org/ns#"
   xmlns:rdf="http://www.w3.org/1999/02/22-rdf-syntax-ns#"
   xmlns:svg="http://www.w3.org/2000/svg"
   xmlns="http://www.w3.org/2000/svg"
   viewBox="0 0 1371.52 235.74001"
   height="235.74001"
   width="1371.52"
   xml:space="preserve"
   id="svg2"
   version="1.1"><metadata
     id="metadata8"><rdf:RDF><cc:Work
         rdf:about=""><dc:format>image/svg+xml</dc:format><dc:type
           rdf:resource="http://purl.org/dc/dcmitype/StillImage" /></cc:Work></rdf:RDF></metadata><defs
     id="defs6"><clipPath
       id="clipPath18"
       clipPathUnits="userSpaceOnUse"><path
         id="path16"
         d="M 0,176.805 H 1028.639 V 0 H 0 Z" /></clipPath></defs><g
     transform="matrix(1.3333333,0,0,-1.3333333,0,235.74)"
     id="g10"><g
       id="g12"><g
         clip-path="url(#clipPath18)"
         id="g14"><g
           transform="translate(212.7775,137.4533)"
           id="g20"><path
             id="path22"
             style="fill:#2e3950;fill-opacity:1;fill-rule:nonzero;stroke:none"
             d="m 0,0 v 2.643 c 0,17.835 6.407,25.298 19.288,25.298 11.824,0 17.968,-5.417 17.968,-17.966 V 7.729 h -8.852 c 0,8.19 -2.114,12.484 -8.588,12.484 H 19.223 C 11.626,20.213 9.05,14.268 9.05,2.643 V 0 c 0,-11.626 2.51,-17.57 10.635,-17.57 h 0.594 c 3.633,0 6.408,1.188 8.125,2.576 v 9.973 H 20.939 V 2.643 H 37.256 V -19.288 C 33.755,-22.393 28.668,-25.299 19.949,-25.299 6.407,-25.299 0,-17.835 0,0" /></g><g
           transform="translate(277.9084,129.4611)"
           id="g24"><path
             id="path26"
             style="fill:#2e3950;fill-opacity:1;fill-rule:nonzero;stroke:none"
             d="m 0,0 v 2.113 c 0,6.077 -2.246,9.842 -7.266,9.842 -5.02,0 -7.266,-3.765 -7.266,-9.842 V 0 c 0,-6.012 2.246,-9.776 7.266,-9.776 C -2.246,-9.776 0,-6.012 0,0 m -23.119,0 v 2.113 c 0,10.04 4.888,17.307 15.853,17.307 10.965,0 15.854,-7.267 15.854,-17.307 V 0 c 0,-9.975 -4.889,-17.307 -15.854,-17.307 -10.965,0 -15.853,7.332 -15.853,17.307" /></g><g
           transform="translate(287.7511,148.0226)"
           id="g28"><path
             id="path30"
             style="fill:#2e3950;fill-opacity:1;fill-rule:nonzero;stroke:none"
             d="M 0,0 H 8.983 L 16.844,-27.876 24.705,0 h 8.917 L 22.789,-35.01 h -11.89 z" /></g><g
           transform="translate(332.5373,133.6886)"
           id="g32"><path
             id="path34"
             style="fill:#2e3950;fill-opacity:1;fill-rule:nonzero;stroke:none"
             d="M 0,0 H 14.467 C 14.202,5.548 11.956,8.521 7.267,8.521 2.643,8.521 0.331,5.548 0,0 m 0,-6.342 c 0.331,-5.747 2.973,-8.521 7.861,-8.521 4.69,0 7.134,2.774 7.134,5.417 h 8.125 v -0.265 c 0,-6.275 -5.285,-11.823 -15.325,-11.823 -11.296,0 -16.382,7.53 -16.382,17.504 v 1.717 c 0,9.975 5.219,17.505 16.052,17.505 10.766,0 15.655,-7.53 15.655,-17.505 v -4.029 z" /></g><g
           transform="translate(378.7765,148.8146)"
           id="g36"><path
             id="path38"
             style="fill:#2e3950;fill-opacity:1;fill-rule:nonzero;stroke:none"
             d="m 0,0 v -8.323 h -1.453 c -4.624,0 -7.068,-2.114 -8.125,-3.698 v -23.781 h -8.587 v 25.101 l -0.595,9.909 h 7.597 l 0.726,-4.228 c 1.982,2.907 5.153,5.086 9.447,5.086 C -0.594,0.066 -0.198,0 0,0" /></g><g
           transform="translate(406.3224,113.0128)"
           id="g40"><path
             id="path42"
             style="fill:#2e3950;fill-opacity:1;fill-rule:nonzero;stroke:none"
             d="m 0,0 v 22.591 c 0,3.369 -1.651,5.812 -5.549,5.812 -4.029,0 -6.275,-2.378 -7.266,-4.029 V 0 h -8.587 v 25.101 l -0.595,9.909 h 7.597 l 0.793,-4.624 c 2.179,3.17 5.812,5.482 11.361,5.482 7.662,0 10.767,-5.549 10.767,-11.889 V 0 Z" /></g><g
           transform="translate(443.7755,129.4611)"
           id="g44"><path
             id="path46"
             style="fill:#2e3950;fill-opacity:1;fill-rule:nonzero;stroke:none"
             d="m 0,0 v 2.113 c 0,6.077 -2.246,9.842 -7.266,9.842 -5.02,0 -7.266,-3.765 -7.266,-9.842 V 0 c 0,-6.012 2.246,-9.776 7.266,-9.776 C -2.246,-9.776 0,-6.012 0,0 m -23.119,0 v 2.113 c 0,10.04 4.888,17.307 15.853,17.307 10.965,0 15.854,-7.267 15.854,-17.307 V 0 c 0,-9.975 -4.889,-17.307 -15.854,-17.307 -10.965,0 -15.853,7.332 -15.853,17.307" /></g><g
           transform="translate(476.8039,148.8146)"
           id="g48"><path
             id="path50"
             style="fill:#2e3950;fill-opacity:1;fill-rule:nonzero;stroke:none"
             d="m 0,0 v -8.323 h -1.453 c -4.624,0 -7.068,-2.114 -8.125,-3.698 v -23.781 h -8.587 v 25.101 l -0.595,9.909 h 7.597 l 0.726,-4.228 c 1.982,2.907 5.153,5.086 9.447,5.086 C -0.594,0.066 -0.198,0 0,0" /></g><g
           transform="translate(493.3849,157.1378)"
           id="g52"><path
             id="path54"
             style="fill:#2e3950;fill-opacity:1;fill-rule:nonzero;stroke:none"
             d="m 0,0 c 0,-7.2 -3.436,-10.899 -10.106,-10.899 v 4.492 c 3.104,0 4.954,1.386 5.482,4.491 H -9.38 V 7.398 H 0 Z" /></g><g
           transform="translate(514.259,123.1857)"
           id="g56"><path
             id="path58"
             style="fill:#2e3950;fill-opacity:1;fill-rule:nonzero;stroke:none"
             d="m 0,0 c 0,3.038 -1.718,4.095 -6.672,4.491 -9.71,0.793 -13.475,3.501 -13.475,9.645 v 0.528 c 0,7.464 5.878,11.031 14.135,11.031 10.041,0 14.202,-4.69 14.202,-11.956 v -0.33 h -8.388 c 0,3.501 -1.586,5.614 -5.814,5.614 -3.633,0 -5.68,-1.585 -5.68,-4.161 0,-2.576 1.255,-3.831 6.408,-4.227 C 3.501,9.908 8.587,7.86 8.587,0.792 V 0.33 c 0,-6.935 -4.954,-11.361 -14.599,-11.361 -10.106,0 -14.597,5.218 -14.597,11.559 v 0.264 h 8.521 c 0,-2.84 1.453,-5.152 6.076,-5.152 C -1.916,-4.36 0,-2.576 0,0" /></g><g
           transform="translate(568.5568,154.4953)"
           id="g60"><path
             id="path62"
             style="fill:#2e3950;fill-opacity:1;fill-rule:nonzero;stroke:none"
             d="M 0,0 -8.521,-41.747 H -19.949 L -28.8,10.041 h 9.247 l 5.879,-39.897 8.06,39.897 H 5.549 l 8.125,-39.897 5.879,39.897 H 28.8 L 19.948,-41.747 H 8.455 Z" /></g><g
           transform="translate(621.5334,129.4611)"
           id="g64"><path
             id="path66"
             style="fill:#2e3950;fill-opacity:1;fill-rule:nonzero;stroke:none"
             d="m 0,0 v 2.113 c 0,6.077 -2.246,9.842 -7.266,9.842 -5.02,0 -7.266,-3.765 -7.266,-9.842 V 0 c 0,-6.012 2.246,-9.776 7.266,-9.776 C -2.246,-9.776 0,-6.012 0,0 m -23.119,0 v 2.113 c 0,10.04 4.888,17.307 15.853,17.307 10.965,0 15.854,-7.267 15.854,-17.307 V 0 c 0,-9.975 -4.889,-17.307 -15.854,-17.307 -10.965,0 -15.853,7.332 -15.853,17.307" /></g><g
           transform="translate(654.5617,148.8146)"
           id="g68"><path
             id="path70"
             style="fill:#2e3950;fill-opacity:1;fill-rule:nonzero;stroke:none"
             d="m 0,0 v -8.323 h -1.453 c -4.624,0 -7.068,-2.114 -8.125,-3.698 v -23.781 h -8.587 v 25.101 l -0.595,9.909 h 7.597 l 0.726,-4.228 c 1.982,2.907 5.153,5.086 9.447,5.086 C -0.594,0.066 -0.198,0 0,0" /></g><g
           transform="translate(660.4426,165.8566)"
           id="g72"><path
             id="path74"
             style="fill:#2e3950;fill-opacity:1;fill-rule:nonzero;stroke:none"
             d="m 0,0 h 8.587 v -31.971 l 11.956,14.137 h 10.37 L 19.155,-31.111 30.913,-52.844 h -9.974 l -7.663,15.061 -4.689,-5.351 v -9.71 H 0 Z" /></g><g
           transform="translate(708.2004,148.0226)"
           id="g76"><path
             id="path78"
             style="fill:#2e3950;fill-opacity:1;fill-rule:nonzero;stroke:none"
             d="M 0,0 H 8.389 V -7.531 H 0 V -35.01 h -8.587 v 27.479 h -5.351 V 0 h 5.351 v 6.473 c 0,8.983 5.02,12.22 12.22,12.22 3.104,0 4.888,-0.594 5.417,-0.859 V 10.7 C 8.653,10.898 6.936,11.229 5.681,11.229 2.113,11.229 0,10.172 0,5.482 Z" /></g><g
           transform="translate(743.0109,129.4611)"
           id="g80"><path
             id="path82"
             style="fill:#2e3950;fill-opacity:1;fill-rule:nonzero;stroke:none"
             d="m 0,0 v 2.113 c 0,6.077 -2.245,9.842 -7.266,9.842 -5.02,0 -7.266,-3.765 -7.266,-9.842 V 0 c 0,-6.012 2.246,-9.776 7.266,-9.776 C -2.245,-9.776 0,-6.012 0,0 m -23.119,0 v 2.113 c 0,10.04 4.888,17.307 15.853,17.307 10.965,0 15.854,-7.267 15.854,-17.307 V 0 c 0,-9.975 -4.889,-17.307 -15.854,-17.307 -10.965,0 -15.853,7.332 -15.853,17.307" /></g><g
           transform="translate(774.718,148.8146)"
           id="g84"><path
             id="path86"
             style="fill:#2e3950;fill-opacity:1;fill-rule:nonzero;stroke:none"
             d="m 0,0 v -8.323 h -1.453 c -4.624,0 -7.068,-2.114 -8.125,-3.698 v -23.781 h -8.587 v 25.101 l -0.595,9.909 h 7.597 l 0.726,-4.228 c 1.982,2.907 5.153,5.086 9.447,5.086 C -0.594,0.066 -0.198,0 0,0" /></g><g
           transform="translate(793.4797,119.6847)"
           id="g88"><path
             id="path90"
             style="fill:#2e3950;fill-opacity:1;fill-rule:nonzero;stroke:none"
             d="m 0,0 c 4.359,0 6.209,2.642 6.209,6.077 h 8.125 V 4.689 c 0,-6.671 -4.624,-12.219 -14.532,-12.219 -10.767,0 -15.457,7.332 -15.457,17.306 v 2.114 c 0,10.04 4.69,17.306 15.457,17.306 9.908,0 14.532,-5.68 14.532,-12.749 V 14.994 H 6.209 c 0,4.096 -1.981,6.737 -6.209,6.737 -5.021,0 -7.068,-3.764 -7.068,-9.841 V 9.776 C -7.068,3.765 -5.021,0 0,0" /></g><g
           transform="translate(821.091,133.6886)"
           id="g92"><path
             id="path94"
             style="fill:#2e3950;fill-opacity:1;fill-rule:nonzero;stroke:none"
             d="M 0,0 H 14.467 C 14.202,5.548 11.956,8.521 7.267,8.521 2.643,8.521 0.331,5.548 0,0 m 0,-6.342 c 0.331,-5.747 2.973,-8.521 7.861,-8.521 4.69,0 7.134,2.774 7.134,5.417 h 8.125 v -0.265 c 0,-6.275 -5.285,-11.823 -15.325,-11.823 -11.296,0 -16.382,7.53 -16.382,17.504 v 1.717 c 0,9.975 5.219,17.505 16.052,17.505 10.766,0 15.655,-7.53 15.655,-17.505 v -4.029 z" /></g><g
           transform="translate(872.7473,135.5373)"
           id="g96"><path
             id="path98"
             style="fill:#2e3950;fill-opacity:1;fill-rule:nonzero;stroke:none"
             d="m 0,0 v -14.796 h 7.927 c 3.831,0 7.595,1.718 7.595,7.002 v 0.727 C 15.522,-1.717 11.758,0 7.927,0 Z M 0,21.271 V 7.729 h 6.936 c 3.699,0 7.266,1.387 7.266,6.341 v 0.859 c 0,4.954 -3.567,6.342 -7.266,6.342 z m 6.936,7.728 c 8.191,0 16.25,-2.576 16.25,-13.872 v -1.321 c 0,-5.086 -2.378,-8.059 -5.748,-9.776 4.03,-1.717 7.069,-4.888 7.069,-10.767 v -1.322 c 0,-11.691 -8.455,-14.465 -16.91,-14.465 H -8.852 v 51.523 z" /></g><g
           transform="translate(924.799,129.4611)"
           id="g100"><path
             id="path102"
             style="fill:#2e3950;fill-opacity:1;fill-rule:nonzero;stroke:none"
             d="m 0,0 v 2.113 c 0,6.077 -2.246,9.842 -7.266,9.842 -5.02,0 -7.266,-3.765 -7.266,-9.842 V 0 c 0,-6.012 2.246,-9.776 7.266,-9.776 C -2.246,-9.776 0,-6.012 0,0 m -23.119,0 v 2.113 c 0,10.04 4.888,17.307 15.853,17.307 10.965,0 15.854,-7.267 15.854,-17.307 V 0 c 0,-9.975 -4.889,-17.307 -15.854,-17.307 -10.965,0 -15.853,7.332 -15.853,17.307" /></g><g
           transform="translate(957.8937,122.8546)"
           id="g104"><path
             id="path106"
             style="fill:#2e3950;fill-opacity:1;fill-rule:nonzero;stroke:none"
             d="M 0,0 V 7.398 L -7.332,6.21 C -10.966,5.615 -12.551,3.897 -12.551,1.189 V 0.661 c 0,-2.18 1.453,-4.294 4.954,-4.294 4.03,0 6.474,2.114 7.597,3.633 m 0.858,-5.812 c -2.444,-2.84 -6.209,-4.888 -11.427,-4.888 -7.398,0 -10.569,4.689 -10.569,10.304 v 0.661 c 0,7.596 5.416,9.974 12.22,10.964 L 0,12.617 v 0.132 c 0,4.426 -1.388,6.605 -5.813,6.605 -4.756,0 -5.813,-2.708 -5.813,-5.747 h -8.19 v 0.595 c 0,5.879 3.038,11.824 14.201,11.824 10.899,0 14.202,-5.086 14.202,-13.277 V 0.066 L 9.115,-9.842 H 1.52 Z" /></g><g
           transform="translate(992.0441,148.8146)"
           id="g108"><path
             id="path110"
             style="fill:#2e3950;fill-opacity:1;fill-rule:nonzero;stroke:none"
             d="m 0,0 v -8.323 h -1.453 c -4.624,0 -7.068,-2.114 -8.125,-3.698 v -23.781 h -8.587 v 25.101 l -0.595,9.909 h 7.597 l 0.726,-4.228 c 1.982,2.907 5.153,5.086 9.447,5.086 C -0.594,0.066 -0.198,0 0,0" /></g><g
           transform="translate(1019.5236,137.3869)"
           id="g112"><path
             id="path114"
             style="fill:#2e3950;fill-opacity:1;fill-rule:nonzero;stroke:none"
             d="m 0,0 c -0.991,1.651 -3.236,4.029 -6.87,4.029 -4.888,0 -6.936,-3.698 -6.936,-9.841 v -2.114 c 0,-6.143 2.048,-9.776 6.936,-9.776 3.634,0 5.879,2.311 6.87,3.963 z M 0,7.398 V 28.47 h 8.587 v -42.936 l 0.528,-9.908 H 1.52 l -0.727,4.359 c -1.916,-2.972 -5.087,-5.217 -10.041,-5.217 -9.578,0 -13.145,7.332 -13.145,17.306 v 2.114 c 0,10.04 3.567,17.306 13.145,17.306 4.294,0 7.267,-1.718 9.248,-4.096" /></g><g
           transform="translate(220.2228,78.6349)"
           id="g116"><path
             id="path118"
             style="fill:#2e3950;fill-opacity:1;fill-rule:nonzero;stroke:none"
             d="M 0,0 C 2.344,0 5.701,0.77 6.331,5.456 L 6.4,5.98 c 0.63,4.687 -2.692,5.666 -5.036,5.666 H -3.707 L -5.211,0 Z M -6.959,-13.359 H -9.478 L -5.91,13.92 h 7.484 c 3.882,0 8.359,-1.609 7.414,-7.904 L 8.884,5.316 C 8.219,1.015 5.876,-0.979 3.218,-1.783 L 6.436,-13.359 H 3.673 L 0.77,-2.238 C 0.385,-2.272 0,-2.272 -0.384,-2.272 h -5.141 z" /></g><g
           transform="translate(251.9074,92.5548)"
           id="g120"><path
             id="path122"
             style="fill:#2e3950;fill-opacity:1;fill-rule:nonzero;stroke:none"
             d="m 0,0 -3.567,-27.279 h -2.518 l 1.679,12.8 h -12.136 l -1.679,-12.8 h -2.518 L -17.172,0 h 2.519 l -1.61,-12.241 H -4.127 L -2.518,0 Z" /></g><g
           transform="translate(262.6086,67.1642)"
           id="g124"><path
             id="path126"
             style="fill:#2e3950;fill-opacity:1;fill-rule:nonzero;stroke:none"
             d="M 0,0 C 4.581,0 7.134,3.287 8.113,11.052 L 8.288,12.45 C 9.268,20.214 7.693,23.502 3.112,23.502 H 2.867 c -4.581,0 -7.135,-3.288 -8.113,-11.052 L -5.421,11.052 C -6.4,3.287 -4.827,0 -0.245,0 Z M 10.876,12.45 10.701,11.052 C 9.513,1.608 6.05,-2.273 -0.175,-2.273 c -6.225,0 -9.023,3.881 -7.834,13.325 l 0.175,1.398 c 1.188,9.444 4.651,13.325 10.876,13.325 6.226,0 9.023,-3.881 7.834,-13.325" /></g><g
           transform="translate(283.4162,67.549)"
           id="g128"><path
             id="path130"
             style="fill:#2e3950;fill-opacity:1;fill-rule:nonzero;stroke:none"
             d="m 0,0 c 5.246,0 8.708,3.183 9.652,10.667 l 0.175,1.398 c 0.98,7.764 -1.714,10.667 -6.819,10.667 H -1.399 L -4.407,0 Z M 12.24,10.667 C 11.086,1.434 6.574,-2.273 -0.07,-2.273 h -7.135 l 3.567,27.279 h 6.89 c 6.645,0 10.352,-3.497 9.163,-12.941 z" /></g><g
           transform="translate(317.339,92.5548)"
           id="g132"><path
             id="path134"
             style="fill:#2e3950;fill-opacity:1;fill-rule:nonzero;stroke:none"
             d="m 0,0 -0.28,-2.273 h -12.731 l -1.294,-9.968 h 10.948 l -0.316,-2.238 h -10.946 l -1.364,-10.527 h 12.695 l -0.279,-2.273 H -18.781 L -15.214,0 Z" /></g><g
           transform="translate(327.4445,65.2755)"
           id="g136"><path
             id="path138"
             style="fill:#2e3950;fill-opacity:1;fill-rule:nonzero;stroke:none"
             d="M 0,0 H -2.519 L 1.049,27.279 H 3.567 Z" /></g><g
           transform="translate(334.7531,85.7345)"
           id="g140"><path
             id="path142"
             style="fill:#2e3950;fill-opacity:1;fill-rule:nonzero;stroke:none"
             d="m 0,0 0.104,0.7 c 0.7,4.546 4.092,6.505 9.024,6.505 6.295,0 8.673,-3.323 7.834,-9.128 l -0.07,-0.49 H 14.374 C 15.144,2.763 13.22,4.932 9.163,4.932 H 8.813 C 5.49,4.932 3.042,3.532 2.658,0.63 L 2.588,0.105 c -0.385,-2.868 1.049,-4.651 5.91,-5.526 5.735,-1.049 7.974,-3.637 7.345,-7.764 l -0.106,-0.699 c -0.699,-4.757 -4.231,-6.96 -9.617,-6.96 -5.77,0 -8.778,3.183 -7.974,8.779 l 0.07,0.489 H 0.734 C -0.21,-16.612 2.378,-18.57 6.05,-18.57 h 0.349 c 3.708,0 6.331,1.468 6.786,4.756 l 0.07,0.525 c 0.42,3.183 -1.469,5.001 -6.086,5.805 C 1.224,-6.435 -0.524,-3.532 0,0" /></g><g
           transform="translate(353.8117,65.2755)"
           id="g144"><path
             id="path146"
             style="fill:#2e3950;fill-opacity:1;fill-rule:nonzero;stroke:none"
             d="M 0,0 3.567,27.279 H 6.086 L 2.798,2.273 H 14.339 L 14.06,0 Z" /></g><g
           transform="translate(375.9845,74.5431)"
           id="g148"><path
             id="path150"
             style="fill:#2e3950;fill-opacity:1;fill-rule:nonzero;stroke:none"
             d="M 0,0 H 8.708 L 6.399,15.528 Z M 8.498,18.291 12.765,-9.268 H 10.106 L 9.058,-2.272 H -0.944 L -3.813,-9.268 H -6.575 L 4.931,18.291 Z" /></g><g
           transform="translate(410.2209,65.2755)"
           id="g152"><path
             id="path154"
             style="fill:#2e3950;fill-opacity:1;fill-rule:nonzero;stroke:none"
             d="M 0,0 H -2.657 L -12.52,23.013 -13.254,16.612 -15.423,0 h -2.448 l 3.567,27.279 h 2.658 l 9.863,-23.012 0.734,6.4 2.168,16.612 h 2.448 z" /></g><g
           transform="translate(422.6007,67.549)"
           id="g156"><path
             id="path158"
             style="fill:#2e3950;fill-opacity:1;fill-rule:nonzero;stroke:none"
             d="m 0,0 c 5.246,0 8.708,3.183 9.652,10.667 l 0.175,1.398 c 0.98,7.764 -1.714,10.667 -6.819,10.667 H -1.399 L -4.407,0 Z M 12.24,10.667 C 11.086,1.434 6.574,-2.273 -0.07,-2.273 h -7.135 l 3.567,27.279 h 6.89 c 6.645,0 10.352,-3.497 9.163,-12.941 z" /></g><g
           transform="translate(223.8957,36.0744)"
           id="g160"><path
             id="path162"
             style="fill:#2e3950;fill-opacity:1;fill-rule:nonzero;stroke:none"
             d="m 0,0 -0.524,-3.987 h -5.142 l -1.049,-7.974 c -0.315,-2.483 0.98,-3.078 2.623,-3.078 0.735,0 1.573,0.175 1.819,0.28 l -0.49,-3.777 c -0.315,-0.14 -1.154,-0.455 -2.693,-0.455 -3.882,0 -6.505,1.714 -5.875,6.435 l 1.119,8.569 h -2.833 L -12.521,0 h 2.833 l 0.7,5.245 h 4.547 L -5.142,0 Z" /></g><g
           transform="translate(237.0089,36.4933)"
           id="g164"><path
             id="path166"
             style="fill:#2e3950;fill-opacity:1;fill-rule:nonzero;stroke:none"
             d="m 0,0 -0.594,-4.616 h -0.804 c -2.168,0 -3.813,-0.98 -4.547,-1.958 l -1.609,-12.381 h -4.547 l 1.749,13.29 0.35,5.246 h 4.023 v -2.344 c 1.083,1.644 3.181,2.798 5.455,2.798 C -0.314,0.035 0,0 0,0" /></g><g
           transform="translate(247.9552,22.8546)"
           id="g168"><path
             id="path170"
             style="fill:#2e3950;fill-opacity:1;fill-rule:nonzero;stroke:none"
             d="M 0,0 0.49,3.602 -3.602,2.973 C -5.246,2.728 -6.365,1.993 -6.54,0.559 L -6.574,0.244 c -0.141,-1.154 0.558,-2.273 2.272,-2.273 2.204,0 3.638,1.189 4.302,2.029 m 0.175,-3.183 c -1.329,-1.539 -2.938,-2.588 -6.05,-2.588 -3.917,0 -5.596,2.623 -5.281,5.595 l 0.035,0.316 c 0.454,3.986 3.112,5.246 7.029,5.839 l 5.001,0.77 0.035,0.28 c 0.281,2.203 -0.349,3.113 -2.727,3.113 -2.448,0 -3.253,-1.434 -3.428,-3.043 h -4.337 l 0.035,0.315 c 0.385,3.357 2.134,6.26 7.799,6.26 5.736,0 7.694,-2.798 7.135,-7.029 L 4.547,-0.07 4.197,-5.316 H 0.175 Z" /></g><g
           transform="translate(263.4123,39.2912)"
           id="g172"><path
             id="path174"
             style="fill:#2e3950;fill-opacity:1;fill-rule:nonzero;stroke:none"
             d="m 0,0 h -4.966 l 0.664,4.932 h 4.967 z m -5.176,-3.217 h 4.547 l -2.413,-18.536 h -4.547 z" /></g><g
           transform="translate(275.7931,17.5382)"
           id="g176"><path
             id="path178"
             style="fill:#2e3950;fill-opacity:1;fill-rule:nonzero;stroke:none"
             d="m 0,0 1.573,11.961 c 0.245,1.853 -0.629,3.077 -2.692,3.077 -2.134,0 -3.322,-1.363 -3.952,-2.203 L -6.75,0 h -4.547 l 1.749,13.29 0.35,5.246 h 4.022 v -2.413 c 1.259,1.713 3.358,2.867 6.085,2.867 4.196,0 5.771,-2.727 5.281,-6.434 L 4.546,0 Z" /></g><g
           transform="translate(299.7472,36.0744)"
           id="g180"><path
             id="path182"
             style="fill:#2e3950;fill-opacity:1;fill-rule:nonzero;stroke:none"
             d="M 0,0 H 4.442 L 3.917,-3.987 H -0.524 L -2.413,-18.536 H -6.959 L -5.07,-3.987 H -7.903 L -7.379,0 h 2.833 l 0.489,3.776 c 0.595,4.652 3.393,6.121 7.275,6.121 1.329,0 2.518,-0.315 2.798,-0.455 L 5.526,5.665 C 5.281,5.771 4.337,5.945 3.498,5.945 1.889,5.945 0.734,5.455 0.42,3.183 Z" /></g><g
           transform="translate(317.6877,26.3517)"
           id="g184"><path
             id="path186"
             style="fill:#2e3950;fill-opacity:1;fill-rule:nonzero;stroke:none"
             d="m 0,0 0.105,0.77 c 0.455,3.322 -0.559,5.455 -3.252,5.455 -2.518,0 -4.022,-1.748 -4.512,-5.316 L -7.764,0.14 c -0.455,-3.323 0.56,-5.456 3.252,-5.456 2.519,0 4.023,1.749 4.512,5.316 m -12.275,0.104 0.105,0.77 c 0.734,5.281 3.182,9.303 9.128,9.303 5.875,0 8.358,-4.127 7.659,-9.373 L 4.512,0.035 c -0.735,-5.281 -3.183,-9.304 -9.128,-9.304 -5.876,0 -8.359,4.127 -7.659,9.373" /></g><g
           transform="translate(336.4318,36.4933)"
           id="g188"><path
             id="path190"
             style="fill:#2e3950;fill-opacity:1;fill-rule:nonzero;stroke:none"
             d="m 0,0 -0.594,-4.616 h -0.804 c -2.168,0 -3.813,-0.98 -4.547,-1.958 l -1.609,-12.381 h -4.547 l 1.749,13.29 0.35,5.246 h 4.022 v -2.344 c 1.084,1.644 3.182,2.798 5.456,2.798 C -0.314,0.035 0,0 0,0" /></g><g
           transform="translate(354.8966,23.1339)"
           id="g192"><path
             id="path194"
             style="fill:#2e3950;fill-opacity:1;fill-rule:nonzero;stroke:none"
             d="m 0,0 c 0,1.364 -1.014,1.959 -3.287,2.203 -5.002,0.56 -6.715,2.238 -6.365,5.526 l 0.035,0.315 c 0.385,3.497 3.742,5.351 7.868,5.351 5.562,0 7.45,-2.343 7.03,-6.191 L 5.246,6.89 H 0.805 c 0.244,1.853 -0.42,2.972 -2.833,2.972 -1.434,0 -3.183,-0.63 -3.183,-2.413 0,-1.189 0.734,-1.714 3.218,-1.958 C 2.238,5.071 4.932,3.672 4.512,-0.21 L 4.477,-0.524 c -0.35,-3.218 -3.358,-5.527 -8.114,-5.527 -5.701,0 -7.625,2.484 -7.24,5.947 l 0.035,0.314 H -6.33 C -6.575,-1.398 -5.771,-2.518 -3.357,-2.518 -1.783,-2.518 0,-1.854 0,0" /></g><g
           transform="translate(369.0246,36.0744)"
           id="g196"><path
             id="path198"
             style="fill:#2e3950;fill-opacity:1;fill-rule:nonzero;stroke:none"
             d="m 0,0 -1.574,-11.961 c -0.244,-1.853 0.63,-3.078 2.693,-3.078 2.134,0 3.322,1.364 3.952,2.203 L 6.75,0 h 4.546 L 9.548,-13.29 9.198,-18.536 H 5.176 v 2.413 c -1.259,-1.714 -3.358,-2.868 -6.085,-2.868 -4.197,0 -5.771,2.728 -5.281,6.435 L -4.547,0 Z" /></g><g
           transform="translate(386.8595,26.4914)"
           id="g200"><path
             id="path202"
             style="fill:#2e3950;fill-opacity:1;fill-rule:nonzero;stroke:none"
             d="m 0,0 c -0.455,-3.322 0.56,-5.456 3.008,-5.456 2.307,0 3.497,1.364 3.742,3.253 h 4.302 l -0.035,-0.315 c -0.42,-3.777 -2.869,-6.89 -8.115,-6.89 -5.631,0 -8.113,4.127 -7.414,9.373 l 0.106,0.769 c 0.734,5.282 3.181,9.303 8.883,9.303 5.315,0 7.834,-2.902 7.309,-6.75 L 11.681,2.518 H 7.379 C 7.589,4.581 6.75,6.085 4.371,6.085 2.099,6.085 0.595,4.337 0.104,0.77 Z" /></g><g
           transform="translate(405.2189,26.4914)"
           id="g204"><path
             id="path206"
             style="fill:#2e3950;fill-opacity:1;fill-rule:nonzero;stroke:none"
             d="m 0,0 c -0.455,-3.322 0.56,-5.456 3.008,-5.456 2.307,0 3.497,1.364 3.742,3.253 h 4.302 l -0.035,-0.315 c -0.42,-3.777 -2.869,-6.89 -8.115,-6.89 -5.631,0 -8.113,4.127 -7.414,9.373 l 0.106,0.769 c 0.734,5.282 3.181,9.303 8.883,9.303 5.315,0 7.834,-2.902 7.309,-6.75 L 11.681,2.518 H 7.379 C 7.589,4.581 6.75,6.085 4.371,6.085 2.099,6.085 0.595,4.337 0.104,0.77 Z" /></g><g
           transform="translate(423.7892,28.4845)"
           id="g208"><path
             id="path210"
             style="fill:#2e3950;fill-opacity:1;fill-rule:nonzero;stroke:none"
             d="M 0,0 H 7.764 C 8.078,2.763 6.89,4.512 4.371,4.512 2.028,4.512 0.489,2.868 0,0 m -0.42,-3.357 c -0.245,-3.008 1.19,-4.511 3.813,-4.511 2.587,0 3.776,1.469 3.951,2.867 h 4.302 l -0.035,-0.314 c -0.384,-3.393 -3.148,-6.086 -8.324,-6.086 -6.33,0 -8.708,4.162 -8.009,9.373 l 0.105,0.769 c 0.7,5.176 3.498,9.303 9.163,9.303 5.911,0 8.324,-4.022 7.555,-9.652 l -0.246,-1.749 z" /></g><g
           transform="translate(449.0382,23.1339)"
           id="g212"><path
             id="path214"
             style="fill:#2e3950;fill-opacity:1;fill-rule:nonzero;stroke:none"
             d="m 0,0 c 0,1.364 -1.015,1.959 -3.287,2.203 -5.001,0.56 -6.715,2.238 -6.365,5.526 l 0.035,0.315 c 0.385,3.497 3.742,5.351 7.868,5.351 5.562,0 7.449,-2.343 7.03,-6.191 L 5.246,6.89 H 0.805 c 0.244,1.853 -0.42,2.972 -2.833,2.972 -1.434,0 -3.183,-0.63 -3.183,-2.413 0,-1.189 0.734,-1.714 3.218,-1.958 C 2.238,5.071 4.932,3.672 4.512,-0.21 L 4.477,-0.524 c -0.35,-3.218 -3.358,-5.527 -8.114,-5.527 -5.701,0 -7.625,2.484 -7.24,5.947 l 0.035,0.314 H -6.33 C -6.575,-1.398 -5.771,-2.518 -3.357,-2.518 -1.783,-2.518 0,-1.854 0,0" /></g><g
           transform="translate(467.4328,23.1339)"
           id="g216"><path
             id="path218"
             style="fill:#2e3950;fill-opacity:1;fill-rule:nonzero;stroke:none"
             d="m 0,0 c 0,1.364 -1.015,1.959 -3.287,2.203 -5.001,0.56 -6.715,2.238 -6.365,5.526 l 0.035,0.315 c 0.385,3.497 3.742,5.351 7.868,5.351 5.562,0 7.449,-2.343 7.03,-6.191 L 5.246,6.89 H 0.805 c 0.244,1.853 -0.42,2.972 -2.833,2.972 -1.434,0 -3.183,-0.63 -3.183,-2.413 0,-1.189 0.734,-1.714 3.218,-1.958 C 2.238,5.071 4.932,3.672 4.512,-0.21 L 4.477,-0.524 c -0.35,-3.218 -3.358,-5.527 -8.114,-5.527 -5.701,0 -7.625,2.484 -7.24,5.947 l 0.035,0.314 H -6.33 C -6.575,-1.398 -5.771,-2.518 -3.357,-2.518 -1.783,-2.518 0,-1.854 0,0" /></g><g
           transform="translate(487.8556,27.3312)"
           id="g220"><path
             id="path222"
             style="fill:#2e3950;fill-opacity:1;fill-rule:nonzero;stroke:none"
             d="m 0,0 h -4.967 l 0.665,4.931 h 4.966 z" /></g><g
           transform="translate(502.4386,26.4914)"
           id="g224"><path
             id="path226"
             style="fill:#2e3950;fill-opacity:1;fill-rule:nonzero;stroke:none"
             d="m 0,0 c -0.455,-3.322 0.56,-5.456 3.008,-5.456 2.307,0 3.497,1.364 3.742,3.253 h 4.302 l -0.035,-0.315 c -0.42,-3.777 -2.869,-6.89 -8.115,-6.89 -5.63,0 -8.113,4.127 -7.414,9.373 l 0.105,0.769 c 0.735,5.282 3.182,9.303 8.884,9.303 5.315,0 7.834,-2.902 7.309,-6.75 L 11.681,2.518 H 7.379 C 7.589,4.581 6.75,6.085 4.371,6.085 2.099,6.085 0.595,4.337 0.104,0.77 Z" /></g><g
           transform="translate(528.5617,26.3517)"
           id="g228"><path
             id="path230"
             style="fill:#2e3950;fill-opacity:1;fill-rule:nonzero;stroke:none"
             d="m 0,0 0.105,0.77 c 0.455,3.322 -0.559,5.455 -3.252,5.455 -2.518,0 -4.022,-1.748 -4.512,-5.316 L -7.764,0.14 c -0.455,-3.323 0.56,-5.456 3.252,-5.456 2.519,0 4.023,1.749 4.512,5.316 m -12.275,0.104 0.104,0.77 c 0.735,5.281 3.183,9.303 9.129,9.303 5.875,0 8.358,-4.127 7.658,-9.373 L 4.512,0.035 c -0.735,-5.281 -3.183,-9.304 -9.128,-9.304 -5.875,0 -8.359,4.127 -7.659,9.373" /></g><g
           transform="translate(546.5021,17.5382)"
           id="g232"><path
             id="path234"
             style="fill:#2e3950;fill-opacity:1;fill-rule:nonzero;stroke:none"
             d="m 0,0 1.573,11.961 c 0.245,1.853 -0.629,3.077 -2.692,3.077 -2.134,0 -3.322,-1.363 -3.952,-2.203 L -6.75,0 h -4.547 l 1.749,13.29 0.35,5.246 h 4.022 v -2.413 c 1.259,1.713 3.358,2.867 6.085,2.867 4.196,0 5.771,-2.727 5.281,-6.434 L 4.546,0 Z" /></g><g
           transform="translate(566.1906,17.5382)"
           id="g236"><path
             id="path238"
             style="fill:#2e3950;fill-opacity:1;fill-rule:nonzero;stroke:none"
             d="m 0,0 1.573,11.961 c 0.245,1.853 -0.629,3.077 -2.692,3.077 -2.134,0 -3.322,-1.363 -3.952,-2.203 L -6.75,0 h -4.547 l 1.749,13.29 0.35,5.246 h 4.021 v -2.413 c 1.26,1.713 3.358,2.867 6.086,2.867 4.196,0 5.771,-2.727 5.281,-6.434 L 4.546,0 Z" /></g><g
           transform="translate(579.7238,28.4845)"
           id="g240"><path
             id="path242"
             style="fill:#2e3950;fill-opacity:1;fill-rule:nonzero;stroke:none"
             d="M 0,0 H 7.764 C 8.078,2.763 6.89,4.512 4.371,4.512 2.028,4.512 0.489,2.868 0,0 m -0.42,-3.357 c -0.245,-3.008 1.19,-4.511 3.813,-4.511 2.587,0 3.776,1.469 3.951,2.867 h 4.302 L 11.61,-5.315 c -0.383,-3.393 -3.147,-6.086 -8.323,-6.086 -6.33,0 -8.708,4.162 -8.009,9.373 l 0.106,0.769 c 0.699,5.176 3.497,9.303 9.162,9.303 5.911,0 8.324,-4.022 7.555,-9.652 l -0.246,-1.749 z" /></g><g
           transform="translate(598.8527,26.4914)"
           id="g244"><path
             id="path246"
             style="fill:#2e3950;fill-opacity:1;fill-rule:nonzero;stroke:none"
             d="m 0,0 c -0.455,-3.322 0.56,-5.456 3.008,-5.456 2.307,0 3.497,1.364 3.742,3.253 h 4.302 l -0.035,-0.315 c -0.42,-3.777 -2.869,-6.89 -8.115,-6.89 -5.63,0 -8.113,4.127 -7.414,9.373 l 0.105,0.769 c 0.735,5.282 3.182,9.303 8.884,9.303 5.315,0 7.834,-2.902 7.309,-6.75 L 11.681,2.518 H 7.379 C 7.589,4.581 6.75,6.085 4.371,6.085 2.099,6.085 0.595,4.337 0.104,0.77 Z" /></g><g
           transform="translate(625.5715,36.0744)"
           id="g248"><path
             id="path250"
             style="fill:#2e3950;fill-opacity:1;fill-rule:nonzero;stroke:none"
             d="m 0,0 -0.524,-3.987 h -5.142 l -1.049,-7.974 c -0.315,-2.483 0.98,-3.078 2.623,-3.078 0.735,0 1.573,0.175 1.819,0.28 l -0.49,-3.777 c -0.315,-0.14 -1.154,-0.455 -2.693,-0.455 -3.882,0 -6.505,1.714 -5.875,6.435 l 1.119,8.569 h -2.833 L -12.521,0 h 2.833 l 0.7,5.245 h 4.547 L -5.142,0 Z" /></g><g
           transform="translate(642.1467,36.0744)"
           id="g252"><path
             id="path254"
             style="fill:#2e3950;fill-opacity:1;fill-rule:nonzero;stroke:none"
             d="M 0,0 H 4.442 L 3.917,-3.987 H -0.524 L -2.413,-18.536 H -6.959 L -5.07,-3.987 H -7.903 L -7.379,0 h 2.833 l 0.489,3.776 c 0.595,4.652 3.393,6.121 7.275,6.121 1.329,0 2.518,-0.315 2.798,-0.455 L 5.526,5.665 C 5.281,5.771 4.337,5.945 3.498,5.945 1.889,5.945 0.734,5.455 0.42,3.183 Z" /></g><g
           transform="translate(660.0871,26.3517)"
           id="g256"><path
             id="path258"
             style="fill:#2e3950;fill-opacity:1;fill-rule:nonzero;stroke:none"
             d="m 0,0 0.105,0.77 c 0.455,3.322 -0.559,5.455 -3.252,5.455 -2.518,0 -4.022,-1.748 -4.512,-5.316 L -7.764,0.14 c -0.455,-3.323 0.56,-5.456 3.252,-5.456 2.519,0 4.023,1.749 4.512,5.316 m -12.275,0.104 0.104,0.77 c 0.735,5.281 3.183,9.303 9.129,9.303 5.875,0 8.358,-4.127 7.658,-9.373 L 4.512,0.035 c -0.735,-5.281 -3.183,-9.304 -9.128,-9.304 -5.875,0 -8.359,4.127 -7.659,9.373" /></g><g
           transform="translate(678.8312,36.4933)"
           id="g260"><path
             id="path262"
             style="fill:#2e3950;fill-opacity:1;fill-rule:nonzero;stroke:none"
             d="m 0,0 -0.594,-4.616 h -0.804 c -2.168,0 -3.813,-0.98 -4.547,-1.958 l -1.609,-12.381 h -4.547 l 1.749,13.29 0.35,5.246 h 4.023 v -2.344 c 1.083,1.644 3.181,2.798 5.455,2.798 C -0.314,0.035 0,0 0,0" /></g><g
           transform="translate(699.1144,30.3732)"
           id="g264"><path
             id="path266"
             style="fill:#2e3950;fill-opacity:1;fill-rule:nonzero;stroke:none"
             d="m 0,0 c -0.419,0.909 -1.434,2.203 -3.322,2.203 -2.588,0 -3.988,-1.713 -4.407,-4.721 l -0.105,-0.769 c -0.419,-3.008 0.665,-4.861 3.253,-4.861 1.853,0 3.112,1.223 3.777,2.063 z m -1.329,-10.002 c -0.943,-0.979 -2.657,-2.099 -5.001,-2.099 -4.477,0 -6.68,3.778 -6.015,8.779 l 0.105,0.769 c 0.699,5.141 3.253,8.708 7.869,8.708 2.798,0 4.406,-1.294 5.246,-2.867 L 1.539,5.701 H 5.562 L 4.582,0.455 2.833,-12.939 c -0.629,-4.828 -3.183,-7.345 -8.604,-7.345 -6.12,0 -8.078,3.182 -7.588,6.68 l 0.104,0.769 h 4.268 c -0.281,-2.343 0.664,-3.707 3.216,-3.707 2.763,0 3.743,1.189 4.092,3.882 z" /></g><g
           transform="translate(718.0334,36.4933)"
           id="g268"><path
             id="path270"
             style="fill:#2e3950;fill-opacity:1;fill-rule:nonzero;stroke:none"
             d="m 0,0 -0.594,-4.616 h -0.804 c -2.168,0 -3.813,-0.98 -4.547,-1.958 l -1.609,-12.381 h -4.547 l 1.749,13.29 0.35,5.246 h 4.022 v -2.344 c 1.084,1.644 3.182,2.798 5.456,2.798 C -0.314,0.035 0,0 0,0" /></g><g
           transform="translate(730.6594,26.3517)"
           id="g272"><path
             id="path274"
             style="fill:#2e3950;fill-opacity:1;fill-rule:nonzero;stroke:none"
             d="m 0,0 0.105,0.77 c 0.455,3.322 -0.559,5.455 -3.252,5.455 -2.518,0 -4.022,-1.748 -4.512,-5.316 L -7.764,0.14 c -0.455,-3.323 0.56,-5.456 3.252,-5.456 2.519,0 4.023,1.749 4.512,5.316 m -12.275,0.104 0.104,0.77 c 0.735,5.281 3.183,9.303 9.129,9.303 5.875,0 8.358,-4.127 7.658,-9.373 L 4.512,0.035 c -0.735,-5.281 -3.183,-9.304 -9.128,-9.304 -5.875,0 -8.359,4.127 -7.659,9.373" /></g><g
           transform="translate(744.8576,17.5382)"
           id="g276"><path
             id="path278"
             style="fill:#2e3950;fill-opacity:1;fill-rule:nonzero;stroke:none"
             d="m 0,0 h -5.771 l -1.014,18.536 h 4.406 l 0.21,-13.64 4.932,13.64 h 5.525 l 1.364,-13.64 3.743,13.64 h 4.476 L 11.995,0 H 6.225 L 4.931,13.989 Z" /></g><g
           transform="translate(776.8215,36.0744)"
           id="g280"><path
             id="path282"
             style="fill:#2e3950;fill-opacity:1;fill-rule:nonzero;stroke:none"
             d="m 0,0 -0.524,-3.987 h -5.142 l -1.049,-7.974 c -0.315,-2.483 0.98,-3.078 2.623,-3.078 0.735,0 1.573,0.175 1.819,0.28 l -0.49,-3.777 c -0.315,-0.14 -1.154,-0.455 -2.693,-0.455 -3.882,0 -6.505,1.714 -5.875,6.435 l 1.119,8.569 h -2.833 L -12.521,0 h 2.833 l 0.7,5.245 h 4.547 L -5.142,0 Z" /></g><g
           transform="translate(781.507,45.5168)"
           id="g284"><path
             id="path286"
             style="fill:#2e3950;fill-opacity:1;fill-rule:nonzero;stroke:none"
             d="M 0,0 H 4.546 L 3.077,-11.121 c 1.259,1.294 3.148,2.133 5.456,2.133 4.196,0 5.771,-2.728 5.281,-6.435 L 12.17,-27.979 H 7.624 l 1.573,11.961 c 0.245,1.854 -0.629,3.078 -2.692,3.078 -2.134,0 -3.322,-1.364 -3.952,-2.204 L 0.874,-27.979 h -4.547 z" /></g><g
           transform="translate(176.8048,176.8048)"
           id="g288"><path
             id="path290"
             style="fill:#f7913c;fill-opacity:1;fill-rule:nonzero;stroke:none"
             d="m 0,0 c -13.699,-18.86 -22.75,-51.406 -22.75,-88.402 0,-36.996 9.051,-69.543 22.75,-88.403 z" /></g><g
           transform="translate(176.8048,2e-4)"
           id="g292"><path
             id="path294"
             style="fill:#eae6e4;fill-opacity:1;fill-rule:nonzero;stroke:none"
             d="m 0,0 c -18.86,13.698 -51.406,22.75 -88.402,22.75 -36.996,0 -69.543,-9.052 -88.403,-22.75 z" /></g><g
           transform="translate(141.63,176.8048)"
           id="g296"><path
             id="path298"
             style="fill:#2e3950;fill-opacity:1;fill-rule:nonzero;stroke:none"
             d="m 0,0 c -19.334,-4.235 -37.266,-12.229 -54.165,-22.61 -30.89,-18.974 -56.899,-42.803 -74.078,-75.282 -7.107,-13.436 -11.23,-27.814 -13.387,-42.831 V 0 Z" /></g></g></g></g></svg>